HIERARCHY
ROOT hip
{
	OFFSET 0.000000 0.000000 0.000000 
	CHANNELS 6 Xposition Yposition Zposition Xrotation Zrotation Yrotation
	JOINT abdomen
	{
		OFFSET 0.000000 3.402643 0.000000 
		CHANNELS 3 Xrotation Zrotation Yrotation
		JOINT chest
		{
			OFFSET 0.000000 8.438565 -0.680529 
			CHANNELS 3 Xrotation Zrotation Yrotation
			JOINT neck
			{
				OFFSET 0.000000 10.207942 -0.272212 
				CHANNELS 3 Xrotation Zrotation Yrotation
				JOINT head
				{
					OFFSET 0.000000 3.130431 0.000000 
					CHANNELS 3 Xrotation Zrotation Yrotation
					End Site
					{
						OFFSET 0.000000 3.130435 0.000000 
					}
				}
			}
			JOINT lCollar
			{
				OFFSET 3.470700 6.669187 -0.816635 
				CHANNELS 3 Yrotation Zrotation Xrotation
				JOINT lShldr
				{
					OFFSET 3.198488 0.000000 0.000000 
					CHANNELS 3 Zrotation Yrotation Xrotation
					JOINT lForeArm
					{
						OFFSET 10.139888 0.000000 0.000000 
						CHANNELS 3 Yrotation Zrotation Xrotation
						JOINT lHand
						{
							OFFSET 8.370511 0.000000 0.000000 
							CHANNELS 3 Zrotation Yrotation Xrotation
							End Site
							{
								OFFSET 4.083176 0.000000 0.000000 
							}
						}
					}
				}
			}
			JOINT rCollar
			{
				OFFSET -3.470700 6.669187 -0.816635 
				CHANNELS 3 Yrotation Zrotation Xrotation
				JOINT rShldr
				{
					OFFSET -3.198488 0.000000 0.000000 
					CHANNELS 3 Zrotation Yrotation Xrotation
					JOINT rForeArm
					{
						OFFSET -10.139888 0.000000 0.000000 
						CHANNELS 3 Yrotation Zrotation Xrotation
						JOINT rHand
						{
							OFFSET -8.370511 0.000000 0.000000 
							CHANNELS 3 Zrotation Yrotation Xrotation
							End Site
							{
								OFFSET -4.083176 0.000000 0.000000 
							}
						}
					}
				}
			}
		}
	}
	JOINT lThigh
	{
		OFFSET 5.308129 -1.633274 1.361059 
		CHANNELS 3 Xrotation Zrotation Yrotation
		JOINT lShin
		{
			OFFSET -2.041588 -20.007561 0.000000 
			CHANNELS 3 Xrotation Zrotation Yrotation
			JOINT lFoot
			{
				OFFSET 0.000000 -19.190928 -1.224953 
				CHANNELS 3 Xrotation Yrotation Zrotation
				End Site
				{
					OFFSET 0.000000 -2.449906 4.627600 
				}
			}
		}
	}
	JOINT rThigh
	{
		OFFSET -5.308129 -1.633274 1.361059 
		CHANNELS 3 Xrotation Zrotation Yrotation
		JOINT rShin
		{
			OFFSET 2.041588 -20.007561 0.000000 
			CHANNELS 3 Xrotation Zrotation Yrotation
			JOINT rFoot
			{
				OFFSET 0.000000 -19.190928 -1.224953 
				CHANNELS 3 Xrotation Yrotation Zrotation
				End Site
				{
					OFFSET 0.000000 -2.449906 4.627600 
				}
			}
		}
	}
}
MOTION
Frames: 13
Frame Time: 0.016667
5.632161 44.370174 5.577301 6.675536 6.598571 -23.464962 58.815208 8.924681 -0.399261 3.963659 4.286546 -0.607983 -26.213448 -11.095819 4.894583 -9.596495 -18.724888 26.834612 -10.536907 -9.394191 -0.485866 -13.440066 -25.503216 -9.675238 -70.829048 5.000000 -8.674272 14.519083 -10.748839 23.441212 9.922325 8.272675 -0.429420 51.628849 11.668180 -2.790131 98.505005 -5.000000 1.529267 15.282610 -13.581264 -5.422228 -24.793421 -0.059404 31.851212 79.328995 -1.385198 -9.736428 -53.766560 -4.357192 4.697663 -53.747307 4.364753 -12.283431 35.754833 4.992945 3.925150 -8.632578 -10.976127 -4.741457 
5.590057 44.417217 6.460526 6.934432 6.131441 -23.854841 58.928135 8.956425 0.568937 3.860183 4.315909 -0.539054 -26.254930 -11.402081 5.016536 -9.449248 -18.881620 26.746820 -10.615968 -9.501466 -0.493002 -13.676340 -25.477434 -9.549342 -70.783348 5.000000 -8.677241 14.458885 -11.019529 23.887297 9.793981 8.087380 -0.418440 51.836266 11.438578 -2.872788 98.326073 -5.000000 1.510928 15.333302 -13.690546 -5.270044 -23.501673 0.777764 32.676228 79.298042 -1.385462 -9.782000 -53.890846 -4.598312 3.185660 -54.023209 4.706324 -11.990906 37.993614 4.885880 4.129065 -8.361803 -11.420527 -5.809902 
5.556785 44.471310 7.361283 7.113607 5.735794 -24.298822 59.005978 8.959041 1.419172 3.774956 4.335481 -0.470804 -26.244921 -11.690609 5.126245 -9.272850 -19.024302 26.750782 -10.665568 -9.589235 -0.497535 -13.961767 -25.396578 -9.434735 -70.689087 5.000000 -8.696912 14.458040 -11.268279 24.213377 9.734383 7.950848 -0.411382 51.984001 11.317468 -2.870112 98.098915 -5.000000 1.481403 15.255868 -13.870587 -5.013032 -22.361795 1.502536 33.330528 79.288956 -1.385375 -9.762063 -53.032192 -4.592517 1.633726 -54.280025 4.980288 -11.697826 40.414951 4.759180 4.398659 -8.684492 -11.737167 -6.503308 
5.529402 44.530102 8.273760 7.260052 5.376656 -24.773970 59.071396 8.959208 2.196442 3.708955 4.325748 -0.402529 -26.206530 -11.979045 5.236083 -9.066142 -19.151903 26.794531 -10.695646 -9.677005 -0.502067 -14.276978 -25.279663 -9.342167 -70.556992 5.000000 -8.720585 14.488893 -11.486086 24.434139 9.713936 7.824066 -0.404827 52.085121 11.273746 -2.802738 97.851685 -5.000000 1.443490 15.076514 -14.119870 -4.687013 -21.367273 2.149054 33.859226 79.320580 -1.395300 -9.705207 -51.490871 -4.444919 0.080745 -54.509014 5.165967 -11.402108 42.949669 4.626006 4.692722 -9.428072 -11.861297 -6.927182 
5.504259 44.591251 9.189775 7.351448 5.063502 -25.261532 59.132740 8.948853 2.906019 3.642206 4.316004 -0.353756 -26.164204 -12.240169 5.332249 -8.861702 -19.267494 26.856619 -10.707850 -9.762960 -0.516055 -14.592424 -25.146929 -9.233527 -70.402451 5.000000 -8.759295 14.513064 -11.695310 24.635805 9.714477 7.715144 -0.408816 52.162922 11.271424 -2.697965 97.604927 -5.000000 1.404669 14.844863 -14.349802 -4.315655 -20.425678 2.749361 34.338524 79.341507 -1.366564 -9.645373 -49.360447 -4.283911 -1.468644 -54.681099 5.341752 -11.067438 45.415092 4.469133 4.918948 -10.195614 -11.966445 -7.306840 
5.488089 44.661808 10.120000 7.291560 4.875875 -25.744190 59.220589 8.907007 3.371500 3.615765 4.267210 -0.274986 -26.073675 -12.446795 5.396766 -8.721600 -19.369392 26.949306 -10.708663 -9.850732 -0.520582 -14.898716 -24.965424 -9.095073 -70.172943 5.000000 -8.855126 14.481290 -11.853576 24.746172 9.743703 7.705385 -0.408311 52.154919 11.445487 -2.464354 97.339577 -5.000000 1.355798 14.423008 -14.552940 -3.756052 -19.790602 3.178463 34.484425 79.508125 -1.317775 -9.600766 -44.928261 -3.964097 -2.909853 -54.575588 5.361011 -10.655583 47.702808 4.283450 5.094133 -11.237052 -11.729442 -7.327500 
5.471919 44.732357 11.050223 7.219464 4.680502 -26.226324 59.308922 8.857604 3.829944 3.578661 4.228169 -0.206685 -25.983521 -12.653385 5.463440 -8.567382 -19.462399 27.038843 -10.699715 -9.938503 -0.525108 -15.200449 -24.776691 -8.970006 -69.945129 5.000000 -8.943656 14.445819 -11.996770 24.848270 9.772930 7.695629 -0.407806 52.137436 11.625007 -2.224895 97.074150 -5.000000 1.306902 13.998085 -14.749766 -3.196706 -19.155550 3.588182 34.627449 79.666962 -1.288066 -9.513150 -40.520725 -3.793520 -4.357419 -54.469704 5.399759 -10.242450 49.998398 4.066249 5.260535 -12.283659 -11.555008 -7.388477 
5.458001 44.821728 11.965078 7.067366 4.680166 -26.667938 59.374363 8.745543 4.022207 3.533672 4.150086 -0.138434 -25.930569 -12.786317 5.497574 -8.360311 -19.571369 27.195934 -10.681009 -10.026277 -0.529633 -15.469357 -24.568956 -8.796844 -69.678322 5.000000 -9.064057 14.460433 -12.109112 24.794170 9.840471 7.765553 -0.401800 52.076248 11.892361 -1.889445 96.828720 -5.000000 1.278114 13.489645 -14.920080 -2.500449 -19.031284 3.894010 34.376514 80.066765 -1.219893 -9.499702 -33.521122 -3.924715 -5.571855 -54.124371 5.243960 -9.807747 51.912067 3.814339 5.322631 -13.209384 -11.145222 -7.243794 
5.444645 44.915810 12.876092 6.889122 4.715012 -27.090883 59.407673 8.623790 4.134419 3.469044 4.072000 -0.069481 -25.876778 -12.909626 5.528113 -8.137829 -19.678228 27.362181 -10.652638 -10.123801 -0.534660 -15.715422 -24.357256 -8.637098 -69.410095 5.000000 -9.191557 14.478293 -12.199136 24.703995 9.919224 7.853325 -0.406340 51.995907 12.183108 -1.527237 96.583656 -5.000000 1.253410 12.949646 -15.059653 -1.760192 -19.037825 4.124169 34.026787 80.504547 -1.132309 -9.501601 -25.914717 -4.304134 -6.680496 -53.761326 5.057742 -9.358571 53.765896 3.558222 5.321733 -14.071636 -10.664366 -7.033938 
5.433170 45.019283 13.768008 6.670421 4.810690 -27.496813 59.466755 8.459710 4.168560 3.404308 3.993910 -0.001227 -25.831890 -13.023318 5.559400 -7.958753 -19.765596 27.534239 -10.624278 -10.221331 -0.539685 -15.926682 -24.149311 -8.490897 -69.117760 5.000000 -9.333982 14.512045 -12.292910 24.538767 9.988290 7.950848 -0.411382 51.896305 12.521076 -1.107335 96.368401 -5.000000 1.216936 12.342052 -15.212940 -0.983278 -19.242168 4.367719 33.523842 81.096657 -1.053454 -9.570210 -18.257595 -5.078034 -7.619242 -53.243034 4.794459 -8.905087 55.401737 3.314212 5.291601 -14.945393 -10.246638 -6.797483 
5.424516 45.136864 14.631266 6.391975 4.984323 -27.877832 59.550465 8.249760 4.044677 3.339367 3.925583 0.076803 -25.776039 -13.148248 5.580595 -7.839120 -19.817915 27.703014 -10.596021 -10.328608 -0.546962 -16.080561 -23.967329 -8.371303 -68.813324 5.000000 -9.484102 14.565547 -12.371538 24.245142 10.057580 8.077628 -0.417936 51.764370 12.945628 -0.614912 96.174721 -5.000000 1.163482 11.627991 -15.356039 -0.168739 -19.762796 4.567259 32.776962 81.840141 -0.965542 -9.775647 -10.490955 -6.133221 -8.181268 -52.573868 4.393910 -8.397017 56.731838 3.118744 5.225169 -15.642071 -9.785094 -6.419101 
5.415862 45.254448 15.494527 6.096705 5.165028 -28.259136 59.627464 8.027487 3.941440 3.275081 3.847493 0.155473 -25.732283 -13.271536 5.611176 -7.718496 -19.859512 27.880835 -10.565912 -10.427925 -0.540792 -16.243996 -23.786291 -8.248295 -68.508858 5.000000 -9.634533 14.616306 -12.458361 23.948360 10.117122 8.204409 -0.424488 51.625568 13.372271 -0.124359 95.980438 -5.000000 1.106753 10.908791 -15.485490 0.657865 -20.270273 4.742466 32.068878 82.545258 -0.868984 -9.949531 -2.751431 -7.400422 -8.548203 -51.922588 4.003297 -7.910088 58.071465 2.913677 5.130881 -16.356689 -9.382490 -6.067942 
5.403728 45.383774 16.299063 5.772078 5.390466 -28.574556 59.735764 7.735453 3.702873 3.220909 3.788935 0.204167 -25.765463 -13.309972 5.619260 -7.612196 -19.897350 28.024887 -10.519623 -10.504161 -0.556031 -16.311842 -23.616512 -8.145786 -68.221420 5.000000 -9.810245 14.712591 -12.452681 23.644285 10.234752 8.262924 -0.428914 51.570362 13.821199 0.330761 95.873260 -5.000000 1.129384 10.216133 -15.551310 1.539308 -21.220415 4.980659 31.173485 83.628113 -0.644969 -10.109262 1.374004 -8.367462 -8.811159 -51.127678 3.466212 -7.391225 59.075958 2.796457 5.033473 -17.073330 -9.044752 -5.637156 
